# xmcd
#
# Track frame offsets: 
#        150
#        24880
#        46885
#        63197
#        82157
#        109082
#        148512
#        179327
#        197415
#        218490
#
# Disc length: 3173 seconds
#
# Revision: 3
# Processed by: cddbd v1.5.2PL0 Copyright (c) Steve Scherf et al.
# Submitted via: ExactAudioCopy v0.95b4
#
DISCID=7e0c630a
DTITLE=James, Etta and Eddie "Cleanhead" Vinson - The Late Show
DYEAR=1990
DGENRE=Blues
TTITLE0=Cleanhead Blues
TTITLE1=Old Maid Boogie
TTITLE2=Home Boy
TTITLE3=Cherry Red
TTITLE4=Baby, What You Want Me To Do?
TTITLE5=Sweet Little Angel
TTITLE6=I'd Rather Go Blind
TTITLE7=Teach Me Tonight
TTITLE8=Only Women Bleed
TTITLE9=He's Got The Whole World In His Hands
EXTD=YEAR: 1990
EXTT0=
EXTT1=
EXTT2=
EXTT3=
EXTT4=
EXTT5=
EXTT6=
EXTT7=
EXTT8=
EXTT9=
PLAYORDER=
